# xmcd CD database file
#
# Track frame offsets:
#	150
#	19856
#	47530
#	68786
#	85521
#
# Disc length: 1419 seconds
#
# Revision: 0
# Processed by: cddbd v1.5.1PL2 Copyright (c) Steve Scherf et al.
# Submitted via: CDex 1.51
#
DISCID=31058905
DTITLE=ロクセンチ - レイトショーを観にいこう
DYEAR=2005
DGENRE=Pop
TTITLE0=レイトショーを観にいこう-single mix-
TTITLE1=ポプラ
TTITLE2=夕凪オレンジ
TTITLE3=continue
TTITLE4=レイトショーを観にいこう-acoustic version-
EXTD=YEAR: 2005
EXTT0=
EXTT1=
EXTT2=
EXTT3=
EXTT4=
PLAYORDER=
